<mxfile host="app.diagrams.net" modified="2022-03-08T09:16:36.099Z" agent="5.0 (Windows NT 10.0; Win64; x64) AppleWebKit/537.36 (KHTML, like Gecko) Chrome/99.0.4844.51 Safari/537.36" etag="va8Vpb3uOMW5OShzEW1S" version="16.6.7" type="github">
  <diagram id="QlxS-xrhG8iBZqLs4fyR" name="Page-1">
    <mxGraphModel dx="1453" dy="1918" grid="1" gridSize="10" guides="1" tooltips="1" connect="1" arrows="1" fold="1" page="1" pageScale="1" pageWidth="827" pageHeight="1169" math="0" shadow="0">
      <root>
        <mxCell id="0" />
        <mxCell id="1" parent="0" />
        <mxCell id="RFU5B4OvJEIW9hu3ygYT-19" style="edgeStyle=orthogonalEdgeStyle;rounded=0;orthogonalLoop=1;jettySize=auto;html=1;entryX=0;entryY=0.5;entryDx=0;entryDy=0;" edge="1" parent="1" source="tXCG0Fq8Z1vAH352S7tZ-3" target="tXCG0Fq8Z1vAH352S7tZ-6">
          <mxGeometry relative="1" as="geometry">
            <mxPoint x="349.9999999999998" y="300" as="targetPoint" />
          </mxGeometry>
        </mxCell>
        <mxCell id="RFU5B4OvJEIW9hu3ygYT-54" style="edgeStyle=orthogonalEdgeStyle;rounded=0;orthogonalLoop=1;jettySize=auto;html=1;exitX=0.5;exitY=1;exitDx=0;exitDy=0;" edge="1" parent="1" source="tXCG0Fq8Z1vAH352S7tZ-3" target="RFU5B4OvJEIW9hu3ygYT-46">
          <mxGeometry relative="1" as="geometry">
            <Array as="points">
              <mxPoint x="370" y="360" />
              <mxPoint x="370" y="360" />
            </Array>
          </mxGeometry>
        </mxCell>
        <mxCell id="tXCG0Fq8Z1vAH352S7tZ-3" value="&lt;div&gt;&lt;span&gt;package com.yida;&lt;/span&gt;&lt;/div&gt;&lt;div&gt;&lt;span&gt;class Student{&lt;/span&gt;&lt;/div&gt;&lt;div&gt;&lt;span&gt;&lt;span style=&quot;white-space: pre&quot;&gt;	&lt;/span&gt;private String name;&lt;/span&gt;&lt;/div&gt;&lt;div&gt;&lt;span&gt;&lt;span style=&quot;white-space: pre&quot;&gt;	&lt;/span&gt;private int age;&lt;/span&gt;&lt;/div&gt;&lt;div&gt;&lt;span&gt;&lt;span style=&quot;white-space: pre&quot;&gt;	&lt;/span&gt;public Student(){&lt;/span&gt;&lt;/div&gt;&lt;div&gt;&lt;span&gt;&lt;span style=&quot;white-space: pre&quot;&gt;	&lt;/span&gt;&lt;span style=&quot;white-space: pre&quot;&gt;	&lt;/span&gt;super();&lt;/span&gt;&lt;/div&gt;&lt;div&gt;&lt;span&gt;&lt;span style=&quot;white-space: pre&quot;&gt;	&lt;/span&gt;}&lt;/span&gt;&lt;/div&gt;&lt;div&gt;&lt;span style=&quot;white-space: pre&quot;&gt;	&lt;/span&gt;public Student(String name,int age){&lt;/div&gt;&lt;div&gt;&lt;span style=&quot;white-space: pre&quot;&gt;	&lt;/span&gt;&lt;span style=&quot;white-space: pre&quot;&gt;	&lt;/span&gt;super();&lt;br&gt;&lt;/div&gt;&lt;div&gt;&lt;span style=&quot;white-space: pre&quot;&gt;	&lt;/span&gt;&lt;span style=&quot;white-space: pre&quot;&gt;	&lt;/span&gt;this.name=name;&lt;br&gt;&lt;/div&gt;&lt;div&gt;&lt;span style=&quot;white-space: pre&quot;&gt;	&lt;/span&gt;&lt;span style=&quot;white-space: pre&quot;&gt;	&lt;/span&gt;this.age=age;&lt;br&gt;&lt;/div&gt;&lt;div&gt;&lt;span style=&quot;white-space: pre&quot;&gt;	&lt;/span&gt;}&lt;br&gt;&lt;/div&gt;&lt;div&gt;&lt;span style=&quot;white-space: pre&quot;&gt;	&lt;/span&gt;private Student(String name){//构造方法是不管形参的位置不一样，形参的名称不一样以及修饰构造方法是public还是private ,只要形参的数据类型和形参的数量是一样的，都是判定重复的构造方法；所以再放射构造方法的时候，只需要提供基本数据类型的class类对象，int.class, String.class;&lt;br&gt;&lt;span style=&quot;white-space: pre&quot;&gt;	&lt;span style=&quot;white-space: pre&quot;&gt;	&lt;/span&gt;s&lt;/span&gt;uper();&lt;br&gt;&lt;/div&gt;&lt;div&gt;&lt;span style=&quot;white-space: pre&quot;&gt;	&lt;/span&gt;&lt;span style=&quot;white-space: pre&quot;&gt;	&lt;/span&gt;this.name=name;&lt;/div&gt;&lt;div&gt;&lt;span style=&quot;white-space: pre&quot;&gt;	&lt;/span&gt;}&lt;br&gt;&lt;/div&gt;&lt;div&gt;&lt;span style=&quot;white-space: pre&quot;&gt;	&lt;/span&gt;&lt;br&gt;&lt;/div&gt;&lt;div&gt;&lt;span style=&quot;white-space: pre&quot;&gt;	&lt;/span&gt;public void hello(String name){&lt;br&gt;&lt;/div&gt;&lt;div&gt;&lt;span style=&quot;white-space: pre&quot;&gt;	&lt;/span&gt;&lt;span style=&quot;white-space: pre&quot;&gt;	&lt;/span&gt;System.out.println(&quot;hello, &quot;+name):&lt;br&gt;&lt;/div&gt;&lt;div&gt;&lt;span style=&quot;white-space: pre&quot;&gt;	&lt;/span&gt;}&lt;br&gt;&lt;/div&gt;&lt;div&gt;&lt;span&gt;}&lt;/span&gt;&lt;/div&gt;&lt;div&gt;&lt;br&gt;&lt;/div&gt;" style="rounded=0;whiteSpace=wrap;html=1;align=left;" parent="1" vertex="1">
          <mxGeometry x="127.5" y="-250" width="425" height="500" as="geometry" />
        </mxCell>
        <mxCell id="tXCG0Fq8Z1vAH352S7tZ-9" value="" style="edgeStyle=orthogonalEdgeStyle;rounded=0;orthogonalLoop=1;jettySize=auto;html=1;" parent="1" source="tXCG0Fq8Z1vAH352S7tZ-6" target="tXCG0Fq8Z1vAH352S7tZ-8" edge="1">
          <mxGeometry relative="1" as="geometry" />
        </mxCell>
        <mxCell id="tXCG0Fq8Z1vAH352S7tZ-6" value="javac Student.java" style="rounded=0;whiteSpace=wrap;html=1;" parent="1" vertex="1">
          <mxGeometry x="450" y="270" width="120" height="60" as="geometry" />
        </mxCell>
        <mxCell id="RFU5B4OvJEIW9hu3ygYT-31" style="edgeStyle=orthogonalEdgeStyle;rounded=0;orthogonalLoop=1;jettySize=auto;html=1;exitX=1;exitY=0.5;exitDx=0;exitDy=0;entryX=0;entryY=0.5;entryDx=0;entryDy=0;" edge="1" parent="1" source="tXCG0Fq8Z1vAH352S7tZ-8" target="RFU5B4OvJEIW9hu3ygYT-16">
          <mxGeometry relative="1" as="geometry" />
        </mxCell>
        <mxCell id="tXCG0Fq8Z1vAH352S7tZ-8" value="Student.class格式文件" style="rounded=0;whiteSpace=wrap;html=1;" parent="1" vertex="1">
          <mxGeometry x="600" y="270" width="120" height="60" as="geometry" />
        </mxCell>
        <mxCell id="RFU5B4OvJEIW9hu3ygYT-18" value="Student.java" style="rounded=0;whiteSpace=wrap;html=1;" vertex="1" parent="1">
          <mxGeometry x="127.5" y="-250" width="120" height="60" as="geometry" />
        </mxCell>
        <mxCell id="RFU5B4OvJEIW9hu3ygYT-28" value="" style="group" vertex="1" connectable="0" parent="1">
          <mxGeometry x="790" y="110" width="1190" height="380" as="geometry" />
        </mxCell>
        <mxCell id="RFU5B4OvJEIW9hu3ygYT-16" value="" style="rounded=0;whiteSpace=wrap;html=1;" vertex="1" parent="RFU5B4OvJEIW9hu3ygYT-28">
          <mxGeometry width="1190" height="380" as="geometry" />
        </mxCell>
        <mxCell id="RFU5B4OvJEIW9hu3ygYT-33" value="" style="edgeStyle=orthogonalEdgeStyle;rounded=0;orthogonalLoop=1;jettySize=auto;html=1;" edge="1" parent="RFU5B4OvJEIW9hu3ygYT-28" source="tXCG0Fq8Z1vAH352S7tZ-10" target="RFU5B4OvJEIW9hu3ygYT-8">
          <mxGeometry relative="1" as="geometry">
            <Array as="points">
              <mxPoint x="410" y="250" />
              <mxPoint x="410" y="250" />
            </Array>
          </mxGeometry>
        </mxCell>
        <mxCell id="tXCG0Fq8Z1vAH352S7tZ-10" value="&lt;div style=&quot;text-align: left&quot;&gt;&lt;span&gt;//反射class 类的对象&lt;/span&gt;&lt;/div&gt;&lt;div style=&quot;text-align: left&quot;&gt;&lt;span&gt;Class&amp;lt;?&amp;gt; cc = new Student().getClass();&lt;/span&gt;&lt;/div&gt;&lt;div style=&quot;text-align: left&quot;&gt;&lt;br&gt;&lt;/div&gt;&lt;div style=&quot;text-align: left&quot;&gt;&lt;span&gt;Class&amp;lt;?&amp;gt; cc2 = Student..class;&lt;/span&gt;&lt;/div&gt;&lt;div style=&quot;text-align: left&quot;&gt;&lt;br&gt;&lt;/div&gt;&lt;div style=&quot;text-align: left&quot;&gt;&lt;span&gt;Class&amp;lt;?&amp;gt; cc3 = Class.forName(&quot;com.yida.Student&quot;):&lt;/span&gt;&lt;/div&gt;" style="rounded=0;whiteSpace=wrap;html=1;" parent="RFU5B4OvJEIW9hu3ygYT-28" vertex="1">
          <mxGeometry x="10" y="200" width="300" height="90" as="geometry" />
        </mxCell>
        <mxCell id="RFU5B4OvJEIW9hu3ygYT-8" value="//反射构造方法&lt;br&gt;Constructor&amp;lt;?&amp;gt; con&amp;nbsp; =&amp;nbsp; cc.getConstructor(String.class,int.class)//获取公共的构造方法&lt;br&gt;Constructor &amp;lt;?&amp;gt; con2 = cc.getDeclaredConstrunctor(String.class,int.class)&lt;br&gt;//反射成员变量&lt;br&gt;Field ff = cc.getField(&quot;name&quot;);&lt;br&gt;Field ff2 = cc.getDeclaredField(&quot;name&quot;);&lt;br&gt;//反射方法&lt;br&gt;Method mm&amp;nbsp; = cc.getMethod(&quot;hello&quot;,String.class);&lt;br&gt;Method mm2 =cc.getDeclaredMethod(&quot;hello&quot;,String.class);" style="rounded=0;whiteSpace=wrap;html=1;align=left;" vertex="1" parent="RFU5B4OvJEIW9hu3ygYT-28">
          <mxGeometry x="370" y="150" width="420" height="180" as="geometry" />
        </mxCell>
        <mxCell id="RFU5B4OvJEIW9hu3ygYT-10" value="//调用构造方法创造Student类对象&lt;br&gt;Object obj = con.newInstance(&quot;irelandspider“,25);" style="whiteSpace=wrap;html=1;align=left;rounded=0;" vertex="1" parent="RFU5B4OvJEIW9hu3ygYT-28">
          <mxGeometry x="870" y="120" width="280" height="60" as="geometry" />
        </mxCell>
        <mxCell id="RFU5B4OvJEIW9hu3ygYT-25" style="edgeStyle=orthogonalEdgeStyle;rounded=0;orthogonalLoop=1;jettySize=auto;html=1;exitX=1;exitY=0.5;exitDx=0;exitDy=0;" edge="1" parent="RFU5B4OvJEIW9hu3ygYT-28" source="RFU5B4OvJEIW9hu3ygYT-8" target="RFU5B4OvJEIW9hu3ygYT-10">
          <mxGeometry relative="1" as="geometry" />
        </mxCell>
        <mxCell id="RFU5B4OvJEIW9hu3ygYT-12" value="//调用成员量获取值或者修改值&lt;br&gt;Object obj&amp;nbsp; =ff.get(obj);&lt;br&gt;ff.set(obj,&quot;irelandspider2&quot;);" style="whiteSpace=wrap;html=1;align=left;rounded=0;" vertex="1" parent="RFU5B4OvJEIW9hu3ygYT-28">
          <mxGeometry x="870" y="210" width="220" height="60" as="geometry" />
        </mxCell>
        <mxCell id="RFU5B4OvJEIW9hu3ygYT-13" value="" style="edgeStyle=orthogonalEdgeStyle;rounded=0;orthogonalLoop=1;jettySize=auto;html=1;" edge="1" parent="RFU5B4OvJEIW9hu3ygYT-28" source="RFU5B4OvJEIW9hu3ygYT-8" target="RFU5B4OvJEIW9hu3ygYT-12">
          <mxGeometry relative="1" as="geometry" />
        </mxCell>
        <mxCell id="RFU5B4OvJEIW9hu3ygYT-14" value="//调用方法并执行&lt;br&gt;object mmResult&amp;nbsp; = mm.invoke(obj,&quot;matt&quot;);" style="whiteSpace=wrap;html=1;align=left;rounded=0;" vertex="1" parent="RFU5B4OvJEIW9hu3ygYT-28">
          <mxGeometry x="870" y="300" width="290" height="60" as="geometry" />
        </mxCell>
        <mxCell id="RFU5B4OvJEIW9hu3ygYT-15" value="" style="edgeStyle=orthogonalEdgeStyle;rounded=0;orthogonalLoop=1;jettySize=auto;html=1;" edge="1" parent="RFU5B4OvJEIW9hu3ygYT-28" source="RFU5B4OvJEIW9hu3ygYT-8" target="RFU5B4OvJEIW9hu3ygYT-14">
          <mxGeometry relative="1" as="geometry" />
        </mxCell>
        <mxCell id="RFU5B4OvJEIW9hu3ygYT-17" value="TestDemo.java" style="rounded=0;whiteSpace=wrap;html=1;" vertex="1" parent="RFU5B4OvJEIW9hu3ygYT-28">
          <mxGeometry width="120" height="60" as="geometry" />
        </mxCell>
        <mxCell id="RFU5B4OvJEIW9hu3ygYT-27" style="edgeStyle=orthogonalEdgeStyle;rounded=0;orthogonalLoop=1;jettySize=auto;html=1;exitX=0.5;exitY=1;exitDx=0;exitDy=0;entryX=0.5;entryY=0;entryDx=0;entryDy=0;" edge="1" parent="RFU5B4OvJEIW9hu3ygYT-28" source="RFU5B4OvJEIW9hu3ygYT-24" target="tXCG0Fq8Z1vAH352S7tZ-10">
          <mxGeometry relative="1" as="geometry" />
        </mxCell>
        <mxCell id="RFU5B4OvJEIW9hu3ygYT-24" value="&lt;div&gt;&lt;span&gt;publci class&amp;nbsp; TesDemo{&lt;/span&gt;&lt;/div&gt;&lt;span style=&quot;white-space: pre&quot;&gt;&lt;div&gt;&lt;span&gt;	&lt;/span&gt;&lt;span style=&quot;white-space: normal&quot;&gt;public static void main(String[] args){&lt;/span&gt;&lt;/div&gt;&lt;/span&gt;&lt;span style=&quot;white-space: pre&quot;&gt;&lt;div&gt;&lt;span&gt;	&lt;span style=&quot;white-space: pre&quot;&gt;	&lt;/span&gt;&lt;/span&gt;&lt;span style=&quot;white-space: normal&quot;&gt;...&lt;/span&gt;&lt;/div&gt;&lt;/span&gt;&lt;div&gt;&lt;br&gt;&lt;/div&gt;&lt;div&gt;&lt;span&gt;&lt;span style=&quot;white-space: pre&quot;&gt;	&lt;/span&gt;}&lt;/span&gt;&lt;/div&gt;&lt;div&gt;&lt;span&gt;}&lt;/span&gt;&lt;/div&gt;" style="rounded=0;whiteSpace=wrap;html=1;align=left;" vertex="1" parent="RFU5B4OvJEIW9hu3ygYT-28">
          <mxGeometry x="10" y="80" width="300" height="90" as="geometry" />
        </mxCell>
        <mxCell id="RFU5B4OvJEIW9hu3ygYT-37" value="" style="edgeStyle=orthogonalEdgeStyle;rounded=0;orthogonalLoop=1;jettySize=auto;html=1;" edge="1" parent="1" source="RFU5B4OvJEIW9hu3ygYT-34" target="RFU5B4OvJEIW9hu3ygYT-36">
          <mxGeometry relative="1" as="geometry" />
        </mxCell>
        <mxCell id="RFU5B4OvJEIW9hu3ygYT-34" value="javac TestDemo.java" style="rounded=0;whiteSpace=wrap;html=1;" vertex="1" parent="1">
          <mxGeometry x="1325" y="530" width="120" height="60" as="geometry" />
        </mxCell>
        <mxCell id="RFU5B4OvJEIW9hu3ygYT-35" value="" style="edgeStyle=orthogonalEdgeStyle;rounded=0;orthogonalLoop=1;jettySize=auto;html=1;" edge="1" parent="1" source="RFU5B4OvJEIW9hu3ygYT-16" target="RFU5B4OvJEIW9hu3ygYT-34">
          <mxGeometry relative="1" as="geometry" />
        </mxCell>
        <mxCell id="RFU5B4OvJEIW9hu3ygYT-39" value="" style="edgeStyle=orthogonalEdgeStyle;rounded=0;orthogonalLoop=1;jettySize=auto;html=1;" edge="1" parent="1" source="RFU5B4OvJEIW9hu3ygYT-36" target="RFU5B4OvJEIW9hu3ygYT-38">
          <mxGeometry relative="1" as="geometry" />
        </mxCell>
        <mxCell id="RFU5B4OvJEIW9hu3ygYT-36" value="TestDemo.class" style="whiteSpace=wrap;html=1;rounded=0;" vertex="1" parent="1">
          <mxGeometry x="1325" y="630" width="120" height="60" as="geometry" />
        </mxCell>
        <mxCell id="RFU5B4OvJEIW9hu3ygYT-41" value="" style="edgeStyle=orthogonalEdgeStyle;rounded=0;orthogonalLoop=1;jettySize=auto;html=1;" edge="1" parent="1" source="RFU5B4OvJEIW9hu3ygYT-38" target="RFU5B4OvJEIW9hu3ygYT-40">
          <mxGeometry relative="1" as="geometry" />
        </mxCell>
        <mxCell id="RFU5B4OvJEIW9hu3ygYT-38" value="java TestDemo.class" style="whiteSpace=wrap;html=1;rounded=0;" vertex="1" parent="1">
          <mxGeometry x="1325" y="740" width="120" height="60" as="geometry" />
        </mxCell>
        <mxCell id="RFU5B4OvJEIW9hu3ygYT-40" value="执行结果" style="whiteSpace=wrap;html=1;rounded=0;" vertex="1" parent="1">
          <mxGeometry x="1325" y="840" width="120" height="60" as="geometry" />
        </mxCell>
        <mxCell id="RFU5B4OvJEIW9hu3ygYT-49" value="" style="edgeStyle=orthogonalEdgeStyle;rounded=0;orthogonalLoop=1;jettySize=auto;html=1;" edge="1" parent="1" source="RFU5B4OvJEIW9hu3ygYT-46" target="RFU5B4OvJEIW9hu3ygYT-48">
          <mxGeometry relative="1" as="geometry" />
        </mxCell>
        <mxCell id="RFU5B4OvJEIW9hu3ygYT-51" value="" style="edgeStyle=orthogonalEdgeStyle;rounded=0;orthogonalLoop=1;jettySize=auto;html=1;" edge="1" parent="1" source="RFU5B4OvJEIW9hu3ygYT-48" target="RFU5B4OvJEIW9hu3ygYT-50">
          <mxGeometry relative="1" as="geometry" />
        </mxCell>
        <mxCell id="RFU5B4OvJEIW9hu3ygYT-48" value="javac TestDemo2.java" style="whiteSpace=wrap;html=1;rounded=0;" vertex="1" parent="1">
          <mxGeometry x="240" y="600" width="140" height="55" as="geometry" />
        </mxCell>
        <mxCell id="RFU5B4OvJEIW9hu3ygYT-53" value="" style="edgeStyle=orthogonalEdgeStyle;rounded=0;orthogonalLoop=1;jettySize=auto;html=1;" edge="1" parent="1" source="RFU5B4OvJEIW9hu3ygYT-50" target="RFU5B4OvJEIW9hu3ygYT-52">
          <mxGeometry relative="1" as="geometry" />
        </mxCell>
        <mxCell id="RFU5B4OvJEIW9hu3ygYT-50" value="java TestDemo2" style="whiteSpace=wrap;html=1;rounded=0;" vertex="1" parent="1">
          <mxGeometry x="250" y="680" width="120" height="60" as="geometry" />
        </mxCell>
        <mxCell id="RFU5B4OvJEIW9hu3ygYT-52" value="执行结果" style="whiteSpace=wrap;html=1;rounded=0;" vertex="1" parent="1">
          <mxGeometry x="250" y="780" width="120" height="60" as="geometry" />
        </mxCell>
        <mxCell id="RFU5B4OvJEIW9hu3ygYT-56" value="" style="group" vertex="1" connectable="0" parent="1">
          <mxGeometry x="70" y="350" width="480" height="220" as="geometry" />
        </mxCell>
        <mxCell id="RFU5B4OvJEIW9hu3ygYT-46" value="&lt;div style=&quot;text-align: left&quot;&gt;&lt;span&gt;package com.yida;&lt;/span&gt;&lt;/div&gt;&lt;div style=&quot;text-align: left&quot;&gt;&lt;br&gt;&lt;/div&gt;&lt;div style=&quot;text-align: left&quot;&gt;import com.yida.Student;&lt;/div&gt;&lt;div style=&quot;text-align: left&quot;&gt;&lt;br&gt;&lt;/div&gt;&lt;div style=&quot;text-align: left&quot;&gt;&lt;span&gt;class TestDemo2{&lt;/span&gt;&lt;/div&gt;&lt;span style=&quot;white-space: pre&quot;&gt;&lt;div style=&quot;text-align: left&quot;&gt;&lt;span&gt;	&lt;/span&gt;&lt;span style=&quot;white-space: normal&quot;&gt;public static void main(String[] args){&lt;/span&gt;&lt;/div&gt;&lt;/span&gt;&lt;div style=&quot;text-align: left&quot;&gt;&lt;span style=&quot;white-space: pre&quot;&gt;	&lt;/span&gt;&lt;span style=&quot;white-space: pre&quot;&gt;	S&lt;/span&gt;&lt;span style=&quot;white-space: pre&quot;&gt;tudent stu = new Student(”irelandspider&quot;,25);&lt;/span&gt;&lt;/div&gt;&lt;div style=&quot;text-align: left&quot;&gt;&lt;span style=&quot;white-space: pre&quot;&gt;&lt;span style=&quot;white-space: pre&quot;&gt;	&lt;/span&gt;&lt;span style=&quot;white-space: pre&quot;&gt;	&lt;/span&gt;stu.hello(&quot;matt&quot;);	&lt;/span&gt;&lt;/div&gt;&lt;div style=&quot;text-align: left&quot;&gt;&lt;span style=&quot;white-space: pre&quot;&gt;	&lt;/span&gt;&lt;span&gt;}&lt;/span&gt;&lt;/div&gt;&lt;div style=&quot;text-align: left&quot;&gt;&lt;span&gt;}&lt;/span&gt;&lt;/div&gt;" style="whiteSpace=wrap;html=1;rounded=0;" vertex="1" parent="RFU5B4OvJEIW9hu3ygYT-56">
          <mxGeometry width="480" height="220" as="geometry" />
        </mxCell>
        <mxCell id="RFU5B4OvJEIW9hu3ygYT-55" value="TestDemo2.java" style="rounded=0;whiteSpace=wrap;html=1;" vertex="1" parent="RFU5B4OvJEIW9hu3ygYT-56">
          <mxGeometry width="110" height="30" as="geometry" />
        </mxCell>
      </root>
    </mxGraphModel>
  </diagram>
</mxfile>
